/* XPM */
static char *vmu_small[] = {
/* width height num_colors chars_per_pixel */
"    78   133       31            1",
/* colors */
". c #070808",
"# c #020204",
"a c #101513",
"b c #131a15",
"c c #191f1e",
"d c #35363a",
"e c #2a2b2e",
"f c #424241",
"g c #3e4057",
"h c #4b4e59",
"i c #4f5471",
"j c #5c5856",
"k c #62646b",
"l c #5c5e64",
"m c #6e7174",
"n c #838a8f",
"o c #7b7e81",
"p c #8f9193",
"q c #989c9f",
"r c #9ea2a5",
"s c #a7abaf",
"t c #aeb2b5",
"u c #b2b6ba",
"v c #b5babc",
"w c #bababc",
"x c #babec0",
"y c #c0c3c5",
"z c #e0e6ec",
"A c #d2d6d9",
"B c #f4f8fa",
"C c #228822",
/* pixels */
"####################################aaaa.aa.aa################################",
"##################################.cedddfdffdddcc.############################",
"#########################aefhknrvAAzBzBBBBBBBzBzAytpkhfea#####################",
"####################aehoquAzBBBBBBBBBzBzzBzBzBzBBBBBBBBAyrkd##################",
"################.djpuAzBBBBBzzzAAyyyyyyyyyywyyyyyyAAAzzBBBBzAqjc##############",
"######a.b#####alsyzBBBzzAAywyyxyxyyyyyyyyyyyyyxyyyyyyyyyyAAzBBBzskda#####.a###",
"##dhmsrsrpfdhsyzBBzzAyyyyywwwwxxyyyyyyyyyyxxywyxyxxxxxxyyyxyxyAzzBzymjqrssrohc",
"ajnqtyAAAAAqwBBzAAyyyyywywxywxyxyyxxyyyyxwyxxxxyyyxxxxyxxwyvxyxxyAAzAAzBzBzAso",
"nmorAzzzBzzzAAyyyvyxwxywxxxyxyxxxxyxxtqpnnnpsyxyyxxyxxxxxxvxxvxxwxyyyAyAyAAysn",
"klmqtxyyyyAvsxyvvxxywxxyxwywyyyyyyyxqprrqrrqppuyyyyxxxyxxxywxvwwvwwwusxxwvwurn",
"lhmpsuwvwwytrwvwwxyxwywwyxxyxxyyyyxrrsrsssrrrqquyyyxyxyyxxxxxywxwwvvtsvuuuuuro",
"hjmpruuwwwytsvwxwwyvxyxxxxywxyxyyyrrssssssrssrrqyyxyyxywyxxxwyxwxvvvusvuvuutro",
"hhmpruvwwwxuswwxwyxxxyxxxyxyyyyyyusststssssssrsrsyyyyyyyyxyyxxxxvwvvtsvvuvutrn",
"hhmprtwxwwyvswwxywxwyxxxyxyyyyyyysttuuttttstssssryyyyyyyyxyxwxxxyvvvuswvvvuusn",
"hhmpsuwwwxyuswxwxxxyxxyyyyyyyyyyysutuuuutststtssrvyyyyyyyyyxyywxvwwvvsvvvuuusn",
"fhmqruvwxwyvsxxxxxyywyyxyyyyyyyyvtussqppnnnppqrrrsyyyyyyyyxxyxxxvxvvvswvvvvusn",
"fjmpsuwwxwyvtxxyyyyyyyyyyyyxyusvuxyAAAAAAzAAAzAAvturrsyxyyyyyyxxyvxwvsyvvvuusp",
"hhmqstwxxxyvsxxxxyxyyyyxuvyyAAAAAAyAyAAyyAyyyyyyyAyAAAytrrswyxyyxywwvsvvwvvusp",
"fhopsvxywxyxsyyyxxxxuuvAAAyyxywvyAyAAyAAAAyAyyyyyyyxwyyyAAAqpqtxxxxxxsywvwvvsp",
"hjoqswxyxyyxtyxyxwvyAAyxwwwwwxwyAAAAAAAAAyAAAAAyAAwwwwwwuvwyAAsnqtxxxsxwvvvvtp",
"fjopswxxxyyysxwuyAAywwwwwwwwwwxwxzAAAAAAAAAAAyAAzwwwwwwwwwwvuvxyArpqxsyvvwwvtp",
"fhmqsvywxwvwruyAyvvvuuuuvvuwwwwwwAzzAAzAAzAAAAAzyyxwvwwwwvvuuuvvvwAunpssssssrn",
"hkopsuvxxxvsxyyuutuuuuuuvwvwwwvwxwABzzzzzzzzzzzAxxxwxxxvvwvuuuutuuuuyuyAyyyyxq",
"fjopsuvvuvxssvtutuuuuuvwvwvvwvxxwxxAzBzzzzzzzByyyxwxwxwvxvvvuuuututuuqxuuvutsp",
"fjoprsuutuwssuutuuvuwuvuwwvwwyvxyxxyyzBBBBBzzyyxywxxxxxyvvvvwvuuuutttquttttssp",
"fjoprtuuutwssuuuvvwwwwxwvvxvxxxywyyxxxwyyAyywxxxywxxxvxvxxxvwvwuuvuuuqvttttsrp",
"hjoprttvuuvsswuwwvxwwvxwvwwwxxwywyxyxxyxwxwwwxxxxyxxxxwxxxwxwxvwvvuuvqvuttttrp",
"flmprstvuvvuswwwwwxxwxvrnmpuwwxxxxywwwxxwxwwxwxxxxwyxxxxxvxvwvvvvvvvvqwuutttrp",
"fjoprttuvwwssvvvvwwwvskjmokhswwvuuwwxwwxwwvxwxxxxxxvxwxvwwvwvvwvvvvuvqwuuuttrp",
"fjoprtuuvuwssvvvvvvvulokhfknhuwpfjhowwxwwwvwvwvwxxvxwwvvvwvvptvwvvvuvqvuutttsp",
"fjoprtuuuuwtsvvvvvvupkkkjmlmknuphusfnompmqpkpnmooksqmonkprkmfmuvwvuvuqvuututrp",
"fjoprtuvvuwssvuvvvvvooglmlmfpkuphuulhhndlfrpfhmjlmjhqrrqhlkrhpvvvvvvvqvuuuttrp",
"fjmprtuuuuwtsuvwvvvvomhofmmhrsuphuthmkqhqqhkfhpmonfjttlkfrkkhsvuvvuuuqwuutttrp",
"hhoprtuuuvwtswvvwwvvrhnfhfphsvvndmhmnkthmnhmdhnmmnhhomfmdmmhjouvvvuuvqvtuuttsp",
"fhoprtuvvvwtsvvwvvvvvohnnohpuvvsrrsusrvtqssqqqssrsssqrsrrsqtssvvvvvuvqvuuuutrp",
"hhoprtvvwwxtswvvvvvvvuqkhkrtvvvvvwvvvvvvuwuvvvvvxvvvvvvvvvvvvvuuvvvuvqvuuuutsp",
"fjmprtvvwvxtsvvvvwwvvvvvvvvvvvwwwwvwvvvvvvuvwvvwwwvwvvvvvvvvvvvvvvvvvqvuuuussp",
"hhopruvvvvwtswvxxvwvwwwvvvvvvwvvvwwvvwvvvvvvvvvutvwvvvwvvvvvwvvuvvvvuqwuuuutsp",
"fjmprtuvvvwtsvvwvvwxwvwvvvwvvvvvvwvvxvwvvwvvvutsvvvuwvvvvvvvvvvvvuuuvqvututsrp",
"fhoprtuvvvvtsvvvvvwvvwvvvvuvuvvwvvuuuuutututttttuuttuuuuvvuvuvvuvuuuuqvututtrp",
"fjmprtuvvwwtrwuvvvvvuuutssrrqpnnommmkkkkkllllkkkkmkmoonnpqqrssttuuutuquututtrp",
"fhoprtuvvuvtsusrqnomljhddecc.aa.a.a.a..#..........a.a.aaaaceedfhlmnprpvtuttssp",
"fhoprttuvvvtrrpoe.a...#.####..#.#.#.#.#.#.##.##.#...#.#.#.##.#...jqsuquuttttsp",
"fhoprtuuvvvtswvp..##.############################################fssuputttstrp",
"fhoprtuuuuwtswvp.#.##############################################hsttqtttttsrp",
"fhmprsuvuvutsvvpa...#................................a#a...a....#hssuqtttustrp",
"fhmprtuvuuvtsvvpaaaaaaaaaaaaaaaaaaaaaaaaaaaaa.aaaaaaaaaaaaaaaaba#hsstqtstttssp",
"fhonrsuvuvvssvvpbbabaaaaaaaaaaaaaaaaaaaaaaaaaaaaaaaaaaaaaaaaaa..ahsstqtttttsrp",
"fhoprtuuvvutsvvpbbbbaabaaaaaaaaaaaabaaaaaaaaaaaaaaaaaaaaaaaaaaaa#hssuqsttttsrp",
"fhonrsuuuuvssvvpbbabbbbaaaaaaaaaabbaaaaaaaaaaaaaaaaaaaaaaaaaaaa..hssuqssttsssp",
"fhmprsuuuuussvvpbbbbbbaaaaaaaaaabbabaaaaaaaaaaaaaaaaaaaaaaaaaaaa#hsstptttttsrp",
"fhmprtuuuuussvvpbbbbbaaaaaaaaaaabbbbaaaaaaaaaaaaaaaaaaaaaaaaaa..ahsttqsttssssn",
"fhonrtuuuuvssvvqbbbbbabaaaaaaaabbbbaaaaaaaaaaaaaaaaaaaaaaaaaaaaa#hsstptsttstrp",
"fhmprsuuuuvtrvvpbbbaaabaaaabaabbbbaaaaaaaaaaaaaaaaaaaaaaaaaaaaaa.hsstputtstssp",
"fhmprsuuuuutsuupbbbaaaaaaaaaaaaabbaabbaaaaaaaaaaaaaaaaaaaaaaaaa..hsstptststsrp",
"fhmprsuutuutrvvpbbbaabaaaaaaaaabbbaaaaaaaaaaaaaaaaaaaaaaaaaaaa.a.fsstpttsttsrp",
"fhmprsuuuuussuvpbbbbcabbaaaaaaabbbaaaaaaaaaaaaaaaaaaaaaaaaaaaaaa.fsstqststtssp",
"fhmprsuuutusrvvqabbbcaabaaaaaaaaababaaaaaaaaaaaaaaaaaaaaaaaaaaa..hrstpsststsrp",
"fhmprtttutusrvupbbbaaaaaaaaaaaaaaaaaaaaaaaaaaaaaaaaaaaaaaaaaaa.a.fsstqsstssssp",
"fhmpqstttuussvvpbbbaaaaaaaaaaaaaaabaaaaaaaaaaaaaaaaaaaaaaaaaaaa.afsstqssttstrp",
"fhmpqstuttusrvupbaaaabaaaaaaaaaaaaaaaaaaaaaaaaaaaaaaaaaaaaaaa.a..hrstpssssssrp",
"fhknrstuutussuupbbbbaaaaaabaaaaaaaaaaaaaaaaaaaaaaaaaaaaaaaaaaaaa.fsstqstsstsrp",
"fhonrsuttuutruuqabaaaaaaaaaaaaaaaaaaaaaaaaaaaaaaaaaaaaaaaaaaa.b.afsstqssttsssp",
"fhmprstuttusrvuqbbaaaaaaaaaaaaaaaaaaaaaaaaaaaaaaaaaaaaaaaaaaaaa..fsstpsssstsrp",
"fhmnrsttutussuuqbaaaaaaaaaaaaaaaaaaaaaaaaaaaaaaaaaaaaaaaaaaa.ba.afsstpsstsssrp",
"fhmnrsuuttusrvuqbbabaaaaaaaaaaaaaaaaaaaaaaaaaaaaaaaaaaaaaaaaaa.a.fsstqsstssssp",
"fhmnrstuttusrvupbbbbaaaaaaaaaaaaaaaaaaaaaaaaaaaaaaaaaaaaaaaaaaa.afsstpssssssrp",
"fhmnqsuuuuussuuqbbbaaaaaaaaaaaaaaaaaaaaaaaaaaaaaaaaaaaaaaaaaaa.a.frttpsttstssp",
"fhmnqsutttusruvqbaaaaaaaaaaaaaaaaaaaaaaaaaaaaaaaaaaaaaaaaaaaaaaa.fsstqssstssrp",
"fhmnqsttttutruuqbababaaaaaaaaaaaaaaaaaaaaaaaaaaaaaaaaaaaaaaaaaa.afrstqsststsrp",
"fhmnqsttuuusrvuqbabbbaabaaaaaaaaaaaaaaaaaaaaaaaaaaaaaaaaaaaaaa.aafsssptsssssrp",
"fhknrsuutuutrvuqbbbaabaaaaaaaaaaaaaaaaaaaaaaaaaaaaaaaaaaaaaaaaaa.frstqssstssrp",
"fhmnqstttuusrvuqbbbbaabaaabbaaaaaaaaaaaaaaaaaaaaaaaaaaaaaaaaaaa..gsssqssssssrp",
"fhknqsttutusrvuqbbbaababaaaaaaaaaaaaabaaaaaaaaaaaaaaaaaaaaaaaaa.afsstpsssssssp",
"fhmnqsttututsuurbbbbbabbbaaaabaaaaaaaaaaaabaaaaaaaaaaaaaaaaaaa.a.frstqssssssrp",
"ffmnqstuuuusrvuqbbbbbbabaaabbbbbbaaaaaaaaaaaaaaaaaaaaaaaaaaaaaaa.fssspssssstrp",
"fhknqsttttutruuqbbbbbcbabaabbbbaaaaaaaaaaaaaaaaaaaaaaaaaaaaaaaaa.fsssqssssssrp",
"fhmnqsuutuusrvurbbbbbbabbbbaabbaaaaabaaaaaaaaaaaaaaaaaaaaaaaaaaaafssspssttssrp",
"fhkpqsttttussuuqbbbbbbbbbaaaaaaaaabbaabbaaaaaaaaaaaaaaaabaaaaaaa.hrssqsssssssp",
"fhmnqsttutttruuqbbbbbbbbbbbbbaabaaaabbbaaaaaaaaaaaaaaaaaaaaaaaa.afsssqssstssrp",
"fhkpqsttttutrvurbbbbbbbbbbbaabbaabaaababbbaaaaaabaaaaabaaaaaaaaa#hrstptsssssrp",
"fhknrsttututruvrcbbbbbbbbbbabbbbbbbbbbcbbbaaaababbbabbbabbabbcaa.hsssqsstsssrp",
"fhmnqsttttussuuscbbbbbbbbbbbbbbbbbbbbbbbbbbbbbbbbbbbbbbbbbbbbbbaajtstqssssssrp",
"fhknqsutttussuuveccccccbcccccbccbbcccbccbcccbbbcccbbcccbcbcbbbbbdrtttqststsssp",
"ffmnqsutttutsAAAApnnnnnnpnpppppqqqqqqrqrrrrsrssssstuvvtvvvyvyyyyzzzAyqststtsrp",
"fhkpqsttttusruxyyAAAzzzzBBBBBBBBBBBBBzzBBBBBBBBBBBBBBBzBzzAAAyyxuutuuqsttsssrp",
"fhknqstttuusrttuvuuvuuvwtuvvvvxyyyyyyAAyyyyyyyxyyvvvvtuttttttututttttqststssrp",
"fhkpqstttuutrtttuuutuuuutuutuuuuuvvvvttvtvttttutuuuututtttttttuttttttqsttsssrp",
"fhknqsttuuusrttuuttutuuuuuttutuuuuuuututrstrrqqruuttsrqqrprprttttttttqstssssrp",
"fhknqsuuttusrtututuuuuuuuuuutuuuuuuuuvurhkqhklhjtutuolfjlhllrttttttttqststssrp",
"ffknqttuuuusrttuuuuvuuvtuuutuuuuuuuvvuusljrhllhmtuuuofgkmmlhrtttttsttqsssssssp",
"fhknqsuuuuusrtuuuuvuuutrrrrssuuuuvvvuvvqllmjmkotuvuupmokmlmlrtuttttttqsttssssp",
"fhknqsuuuuutrttsuuusqmkhfffhknrttvuvuvvvtttttstuvuuuuttttttsututtttttqststssrp",
"fhkpqstutuutruutusnlfdddffffffhnsuuuvuvvvvusrsutvvvvuutrqqqrttutuutttqsssssssp",
"fhknqstuuuutruttpjdcceddeedhhfhhkruvuuvvvskfehotvuvuuqohkpstuututtuuuqsttttsrp",
"fhknqstutuvtrttofaehlliillgddhhhlmruuuuvtmedghhnuvvurkedfhpvtuttttttuqststsssp",
"fhknqstuuuutrtmeehhgggfdgdghgdhljjotuuvuqddhgglksuuupedigglsttttuttttqtsstsssp",
"fhknqstuututqoeeihdggddgdgfghlehkkkquuuvncggggglqtutoagggggnsttttttttqusttssrp",
"ffknqstuuuutpdeihgdggggdgfggggldlkmotuvunbgfgdglptttobdggggorstttttttqttsstsrp",
"fhknqsttuuusmcliigghgfgggdghgiihfmmosuuurdadgfdkstttqecfdggoqstttuuttqttstssrp",
"fhknqsttttuqegliihlhggggggghliildkooruuuupdaaclpttttsoeacelnqstttuuttqttssssrp",
"ffknqruttutkblkkklhgggggggggikkmmhmnquuvuxvnopttuvuttspmkmprsstsqnprtqstsussrp",
"dhknqstuttsdeihgggghggggggggghgiihmoruuuuuvyyyvvvvvuvtvvuvxvutnfcbcdmptstsssrp",
"fhknpsssssnadighhggghhghgggghghgghlmqtvvuuvvvvvuvvvvvvuuuuuutocellilgnssssssrp",
"dhkoqssssro.dhghghghgghlghgghgghhhgmqtuuvvvvvvvurqprtuuuuuutpcdihgggilosssssrp",
"dhknqrssrrmaeihhghghhhgghghhghhgghfmrtuvuvvvvvqhceedhptuutttheigggggggiqssssrp",
"ffknqrssrqmachhghghhhhgfghhghghhhgfmruuuvvvvvpeellllifnutttredgggggggghnrsssrp",
"ffknqrssrqmaeghhhhhhhhihhhhhhhghhdgmttuuvvuuredlgggggihqttsqbdgggfgdgggoqrrsrn",
"fhknpsssrqneadgfghhhhhhhhghhhhhhhegpttuuvvutkciggggggghmstsqcegfgdgddfgmqrrsrp",
"fhlnqrsrrqpfaba.aafhhhihiihidecceeirttuvuuuteeghggggggghrsrrdbddgddddgfoqrrsrp",
"hhkoqrssrqpkaaa...cihhhihhida#aaadosttuuuutscdggggfgfgggqssrkaeddddgdeioprrsqn",
"hhknqrsrrqqmdaedecciiiihiiieceecckstttuuuutrecgfdggdgdfgqsrrpg.ceddeedlnqrrrrp",
"hhkoqssssssqneadgfeiiiihiiifdgdckyvuuuuuuutsfaegdgdddddlqrssrngbaaacghmpqrssqp",
"hhkoqrsttttsrrcaedeliiiiiijggdblxvuuuuuuuutso.ceddgddeemrssssrpkfddhmmnqrsrrrp",
"hhknpsststttqxqeaceiiililildebmxyuuuuvuvuuusrh.beedeeelprsssssssqqpqqnqrrsssrp",
"fhlnqrttsttsqtvsfa.aeedfdecaeoxytvuvvuuvuuutsqha.a.achnrsssttttttttttqssssssrp",
"fhjnpssttstsqtstsmd.#.#..aclpvutuvuuvvvuwuuutssnlffloprsstttttttttsttqssssssrp",
"dhknpssstttsqsssrqnmlhhhlmpsstuuuvvvvuvvuvuuuuuuuvvtttttttuutttshhpstqsstsssrp",
"dfloqrtttttuquttttutttuttuuuvvuvvvvvvvvvvvvuuvuvvvvuvvvuvuuuvuusfhottqssssssrp",
"dfkoqssttttuqtuuuvvvuwvvvvvvvvwvvvvvvvvwvvuwvvvvuquvvvvuvuuuuuushlnttqstssssrp",
"dflnpsttttuvquuuvuvuuuvuvvuvvvvvvvvvvvwvvvvuuvvvqdrvvvuuvvuvuuuusssutptsssssrp",
"dflopsttuuuvquuuvuvvuvvvuvvvvvvwvvvvvvvvuvvvvvvvmhmuvvvuuvvuuuuuuuutuqsttsssrp",
"dflnpsttttuuquuuuuuvuvvuuvvvvwwwvvvvvvvvvvvvvvvulnltvuvuvuvuvuuuuututqstsstsrp",
"ddjoprsttuuvquuuuuvuuuvuvuvvvvvvvvvvvvvvvvvvuvvusvsvvvvuuvuuvuuuuuutuqsttssrqo",
"ddhjopqsttuvquuuuuuvuuvuuvuvvvvvvwvvvvvvvvvvvuvvvvvvvvvuuuuuvuuuuuuuuqssssqpml",
".bedhkonqstuqtuuuuvuvuvvvuvvvvvwvvvvvvvvvvvvuuuuvvvvvuvuvuvtuvuuuuuuuqrrqnmhfc",
"##.aeedjmopsptuuuuvvuvvvvuuvvvvvvvvvvvvvvvvuvvvvvvuuvuvuvvuuuuuuuutssnpnkhdc##",
"#####.acehkmmqrttuvvvuvuvvvvvvvvvvvvvvvvvvuuuuvuvvvuvuvuvuuuvuuttsrqnjlfea####",
"######..aacddkonqrsuuvuvvuvvvvvwvvwvvvvvvvvvuvvvvvvvvuvuuuuuutsrqpmkhcb.######",
"#########..acedhkmnprsstuuuuvvvvvvvvvvvvvvuvuuvuvvvuuuuuttsrqpnmkhdea#########",
"##########...a.bcdfhkmopprrsstuuuvvvvvvvvuuuuuuuuttsssrqppomkjfdca.###########",
"#############..#...aeefhhkmonnpqrrrsssssssssrrrrrqppnommlhfdeba###############",
"################.#..#.#accedfhhjkkmmmoooooooommmkljhfddeca.###################"
};
